<?xml version="1.0" encoding="UTF-8" standalone="no"?>
<!-- Created with Inkscape (http://www.inkscape.org/) -->

<svg
   xmlns:dc="http://purl.org/dc/elements/1.1/"
   xmlns:cc="http://creativecommons.org/ns#"
   xmlns:rdf="http://www.w3.org/1999/02/22-rdf-syntax-ns#"
   xmlns:svg="http://www.w3.org/2000/svg"
   xmlns="http://www.w3.org/2000/svg"
   xmlns:sodipodi="http://sodipodi.sourceforge.net/DTD/sodipodi-0.dtd"
   xmlns:inkscape="http://www.inkscape.org/namespaces/inkscape"
   width="393.57013"
   height="128.12585"
   id="svg21409"
   version="1.1"
   inkscape:version="0.48.4 r9939"
   sodipodi:docname="New document 3">
  <defs
     id="defs21411" />
  <sodipodi:namedview
     id="base"
     pagecolor="#ffffff"
     bordercolor="#666666"
     borderopacity="1.0"
     inkscape:pageopacity="0.0"
     inkscape:pageshadow="2"
     inkscape:zoom="0.98994949"
     inkscape:cx="594.66679"
     inkscape:cy="-74.065377"
     inkscape:document-units="px"
     inkscape:current-layer="layer1"
     showgrid="false"
     fit-margin-top="0"
     fit-margin-left="0"
     fit-margin-right="0"
     fit-margin-bottom="0"
     inkscape:window-width="1680"
     inkscape:window-height="998"
     inkscape:window-x="0"
     inkscape:window-y="0"
     inkscape:window-maximized="1" />
  <metadata
     id="metadata21414">
    <rdf:RDF>
      <cc:Work
         rdf:about="">
        <dc:format>image/svg+xml</dc:format>
        <dc:type
           rdf:resource="http://purl.org/dc/dcmitype/StillImage" />
        <dc:title></dc:title>
      </cc:Work>
    </rdf:RDF>
  </metadata>
  <g
     inkscape:label="Layer 1"
     inkscape:groupmode="layer"
     id="layer1"
     transform="translate(-171.7864,-417.27523)">
    <g
       id="g21366"
       transform="matrix(8.7462549,0,0,8.7462549,-2377.6429,-2750.6852)">
      <path
         inkscape:connector-curvature="0"
         id="path21362"
         d="m 297.15287,376.70591 c -0.2655,-0.2655 -0.16804,-0.5384 0.19228,-0.5384 0.19036,0 0.34612,0.15575 0.34612,0.34611 0,0.36032 -0.2729,0.45779 -0.5384,0.19229 z m 38.6667,-0.30317 c -0.31795,-0.51021 -0.98946,-0.59995 -1.68878,-0.22568 -0.33347,0.17846 -0.65073,0.14457 -1.23299,-0.13173 -0.64736,-0.3072 -1.48128,-0.36011 -4.78523,-0.30365 -2.38354,0.0407 -4.07121,0.16396 -4.1743,0.30479 -0.11413,0.15591 -0.23684,0.13785 -0.36035,-0.053 -0.14349,-0.22173 -1.56026,-0.27809 -6.057,-0.24097 -3.22834,0.0267 -5.55821,0.11866 -5.17748,0.20445 l 0.69223,0.15598 -0.74992,0.0273 c -0.41245,0.015 -0.74991,-0.0506 -0.74991,-0.14576 0,-0.0952 -1.03831,-0.17306 -2.30736,-0.17306 -1.26904,0 -2.30739,0.0779 -2.30743,0.17306 -4e-5,0.0952 -0.11003,0.17306 -0.24443,0.17306 -0.1344,0 -0.19646,-0.0779 -0.13792,-0.17306 0.0585,-0.0952 -0.94771,-0.1863 -2.23612,-0.20249 -1.53006,-0.0192 -2.06246,0.0303 -1.53497,0.14268 l 0.8076,0.17212 -0.99428,0.0304 c -0.54685,0.0167 -0.94294,-0.0527 -0.88019,-0.15421 0.20085,-0.32498 -1.40535,-0.30238 -4.75284,0.0669 -2.22488,0.24541 -3.33547,0.28457 -3.49673,0.12331 -0.33205,-0.33205 -1.46868,-0.29491 -1.59506,0.0521 -0.19838,0.54477 -0.42152,-1.32787 -0.35055,-2.94197 l 0.071,-1.6152 1.26709,-0.11537 1.26709,-0.11537 2.67041,-4.61486 2.6704,-4.61486 14.74596,0 14.74596,0 2.55886,4.61486 2.55886,4.61486 1.19743,0.0697 c 0.72493,0.0422 1.20409,0.1788 1.21431,0.34612 0.0572,0.93611 -0.0724,3.62556 -0.20527,4.26117 -0.14922,0.71371 -0.17339,0.72927 -0.44811,0.28843 z m -23.06794,-3.1555 c -0.15622,-0.0632 -0.46772,-0.067 -0.69223,-0.009 -0.22451,0.0585 -0.0967,0.11022 0.28404,0.11492 0.38072,0.005 0.56441,-0.0432 0.40819,-0.10637 z m 5.07195,-2.09225 c -0.41245,-0.0512 -1.08738,-0.0512 -1.49983,0 -0.41245,0.0512 -0.075,0.0931 0.74992,0.0931 0.8249,0 1.16236,-0.0419 0.74991,-0.0931 z m -19.52585,5.29116 c -0.0622,-0.10057 0.0875,-0.19795 0.33249,-0.2164 0.24503,-0.0185 0.4455,0.0638 0.4455,0.18284 0,0.26267 -0.61987,0.28941 -0.77799,0.0336 z m 1.12411,-0.0479 c -0.0784,-0.12691 0.0712,-0.23074 0.33249,-0.23074 0.26131,0 0.47511,0.10383 0.47511,0.23074 0,0.12691 -0.14963,0.23074 -0.3325,0.23074 -0.18287,0 -0.39667,-0.10383 -0.4751,-0.23074 z m 1.26908,0 c 0,-0.12691 0.15575,-0.23074 0.34612,-0.23074 0.19036,0 0.34611,0.10383 0.34611,0.23074 0,0.12691 -0.15575,0.23074 -0.34611,0.23074 -0.19037,0 -0.34612,-0.10383 -0.34612,-0.23074 z"
         style="fill:#d8dbe2" />
      <path
         inkscape:connector-curvature="0"
         id="path21360"
         d="m 291.571,375.65931 c -0.0718,-0.18711 -0.0999,-1.16169 -0.0625,-2.16574 l 0.0681,-1.82555 1.20409,-0.0695 c 1.43472,-0.0828 1.19141,0.21372 4.34501,-5.29528 l 2.27851,-3.98031 3.77201,0 c 2.59621,0 3.72494,0.0762 3.62098,0.24437 -0.14821,0.23981 -0.15109,1.14933 -0.0116,3.67825 0.0385,0.698 0.008,1.37292 -0.0668,1.49983 -0.0752,0.12691 -0.15137,0.30862 -0.16917,0.4038 -0.0178,0.0952 -0.0583,0.22498 -0.0901,0.28843 -0.0762,0.15247 -0.16611,0.51807 -0.2019,0.82122 -0.0159,0.1344 -0.1195,0.18833 -0.23032,0.11984 -0.11081,-0.0685 -0.18869,0.34009 -0.17305,0.90794 l 0.0284,1.03247 2.94197,0.001 c 1.80842,8.6e-4 2.94197,-0.0875 2.94197,-0.22934 0,-0.12819 0.61531,-0.23074 1.38446,-0.23074 0.95185,0 1.38556,0.0901 1.38799,0.28843 0.003,0.21121 0.0569,0.20422 0.20281,-0.0261 0.16824,-0.26555 0.21876,-0.26555 0.32436,0 0.0888,0.22332 0.13037,0.23089 0.14331,0.0261 0.01,-0.15864 0.12818,-0.28843 0.26257,-0.28843 0.1344,0 0.17948,0.10498 0.10018,0.23329 -0.18652,0.30181 6.58136,0.2817 6.94566,-0.0206 0.3516,-0.29181 0.13004,-1.31386 -0.36017,-1.66145 -0.22841,-0.16196 -0.3849,-0.5516 -0.36801,-0.91632 0.0162,-0.349 -0.0519,-0.63455 -0.15128,-0.63455 -0.0994,0 -0.18068,-0.15575 -0.18068,-0.34611 0,-0.19036 -0.12979,-0.3477 -0.28843,-0.34965 -0.19846,-0.002 -0.20962,-0.0564 -0.0358,-0.17306 0.23048,-0.15465 0.35183,-1.11332 0.41579,-3.28455 l 0.0238,-0.8076 -3.51883,-0.0637 c -1.93535,-0.035 -3.51883,-0.14994 -3.51883,-0.25534 0,-0.25426 7.5096,-0.46053 11.38389,-0.31269 l 3.07274,0.11725 2.52172,4.52598 2.52172,4.52598 1.21875,0.07 1.21874,0.07 -0.0662,2.12201 -0.0662,2.12202 -1.15371,-0.0268 c -4.66685,-0.10856 -40.90788,-0.0585 -42.04809,0.058 -1.15017,0.11758 -1.46343,0.079 -1.56789,-0.19326 z m 11.36967,-1.4968 c -0.22209,-0.058 -0.58551,-0.058 -0.8076,0 -0.22209,0.058 -0.0404,0.10552 0.4038,0.10552 0.44418,0 0.62589,-0.0475 0.4038,-0.10552 z m 10.21037,-0.0717 c 0,-0.12691 -0.28555,-0.22344 -0.63455,-0.21452 -0.56228,0.0144 -0.58199,0.0388 -0.17305,0.21452 0.63024,0.27083 0.8076,0.27083 0.8076,0 z m -0.51917,-0.85128 c -0.22209,-0.058 -0.58551,-0.058 -0.8076,0 -0.22209,0.058 -0.0404,0.10552 0.4038,0.10552 0.44418,0 0.62589,-0.0475 0.4038,-0.10552 z m 10.15537,5e-4 c -0.22061,-0.0577 -0.63595,-0.0599 -0.92297,-0.005 -0.28702,0.0552 -0.10652,0.10244 0.40111,0.105 0.50763,0.003 0.74247,-0.0426 0.52186,-0.10035 z m -9.11703,-2.07095 c -0.15864,-0.064 -0.41822,-0.064 -0.57686,0 -0.15863,0.064 -0.0288,0.11638 0.28843,0.11638 0.31727,0 0.44706,-0.0524 0.28843,-0.11638 z m 2.66743,-0.88553 -0.0943,-0.8076 1.54197,0 c 1.49813,0 1.54541,0.018 1.66301,0.63323 0.0666,0.34828 0.0726,0.7117 0.0133,0.8076 -0.0593,0.0959 -0.76521,0.17437 -1.56874,0.17437 l -1.46096,0 -0.0943,-0.8076 z m -9.18592,-6.34542 c 0,-0.12691 0.10384,-0.23075 0.23075,-0.23075 0.1269,0 0.23074,0.10384 0.23074,0.23075 0,0.1269 -0.10384,0.23074 -0.23074,0.23074 -0.12691,0 -0.23075,-0.10384 -0.23075,-0.23074 z"
         style="fill:#cacdd5" />
      <path
         inkscape:connector-curvature="0"
         id="path21358"
         d="m 291.57486,375.4352 c -0.0754,-0.30054 -0.1059,-1.2711 -0.0677,-2.15681 l 0.0694,-1.61037 1.29751,-0.0683 1.29751,-0.0683 2.62512,-4.60199 2.62512,-4.60199 2.07668,-0.002 2.07669,-0.002 0.0686,1.3265 c 0.0377,0.72957 0.0854,2.07929 0.10589,2.99937 0.0266,1.19361 0.12264,1.67289 0.33519,1.67289 0.16385,0 0.51655,0.21864 0.78378,0.48587 0.39077,0.39077 0.43899,0.5827 0.24636,0.98065 -0.13173,0.27214 -0.24654,0.365 -0.25513,0.20637 -0.01,-0.17583 -0.34811,-0.28843 -0.86732,-0.28843 -0.79842,0 -0.82368,0.0212 -0.4038,0.33877 0.2523,0.19083 0.32195,0.34198 0.15948,0.34612 -0.15864,0.004 -0.28843,0.16309 -0.28843,0.35345 0,0.21127 -0.24721,0.36616 -0.63455,0.39758 -1.37266,0.11133 18.40164,0.28744 20.13013,0.17928 2.08045,-0.13019 2.28806,-0.34452 1.62037,-1.67286 -0.37671,-0.74945 -0.52487,-4.50763 -0.23593,-5.98459 0.0667,-0.34088 0.0129,-0.68678 -0.11962,-0.76865 -0.13247,-0.0819 -1.6389,-0.14492 -3.3476,-0.14009 -1.70871,0.005 -3.10675,-0.0841 -3.10675,-0.19766 0,-0.11354 0.18171,-0.20599 0.4038,-0.20544 0.22209,5.5e-4 2.73848,-0.0107 5.59197,-0.025 2.85349,-0.0143 5.2189,0.0567 5.25646,0.15772 0.0376,0.10103 1.18134,2.15654 2.54172,4.5678 l 2.47343,4.38412 1.21989,0.07 1.21989,0.07 -0.0662,2.12201 -0.0662,2.12202 -0.88139,0.0726 c -0.48476,0.0399 -1.02265,-0.0447 -1.19531,-0.18796 -0.23061,-0.1914 -5.63019,-0.22545 -20.34695,-0.12831 -11.01817,0.0727 -20.52173,0.19336 -21.11903,0.26808 -1.00209,0.12536 -1.0966,0.0936 -1.22315,-0.41058 z m 41.08488,-1.1746 0.6813,-0.10063 -0.73069,-0.0346 c -0.40188,-0.019 -0.77484,-0.16436 -0.82881,-0.323 -0.054,-0.15863 -0.15082,0.0651 -0.21523,0.49711 -0.094,0.63033 -0.0648,0.71403 0.14751,0.42364 0.14554,-0.19905 0.57121,-0.40719 0.94592,-0.46254 z m -20.24504,-0.92879 c 0.51246,-0.0783 0.47786,-0.10086 -0.19799,-0.12939 -0.81875,-0.0346 -0.81892,-0.0344 -0.69681,0.83072 l 0.12214,0.86528 0.0759,-0.7359 c 0.0615,-0.59674 0.19326,-0.75382 0.69681,-0.83071 z m -9.47403,0.8307 c -0.22209,-0.058 -0.58551,-0.058 -0.8076,0 -0.22209,0.058 -0.0404,0.10552 0.4038,0.10552 0.44418,0 0.62589,-0.0475 0.4038,-0.10552 z m 10.21037,-0.0717 c 0,-0.12691 -0.25959,-0.23074 -0.57686,-0.23074 -0.31727,0 -0.57686,0.10383 -0.57686,0.23074 0,0.12691 0.25959,0.23074 0.57686,0.23074 0.31727,0 0.57686,-0.10383 0.57686,-0.23074 z m 9.92194,0 c 0,-0.12691 -0.25959,-0.23074 -0.57686,-0.23074 -0.31727,0 -0.57685,0.10383 -0.57685,0.23074 0,0.12691 0.25958,0.23074 0.57685,0.23074 0.31727,0 0.57686,-0.10383 0.57686,-0.23074 z m 0.0609,-0.85465 c -0.2838,-0.0548 -0.80297,-0.0562 -1.15372,-0.003 -0.35074,0.053 -0.11854,0.0978 0.516,0.0996 0.63455,0.002 0.92152,-0.0417 0.63772,-0.0964 z m -27.57695,-0.91961 c -0.22209,-0.058 -0.58551,-0.058 -0.8076,0 -0.22209,0.058 -0.0404,0.10553 0.4038,0.10553 0.44418,0 0.62589,-0.0475 0.4038,-0.10553 z m 17.30572,-1.37821 c 0.15863,-0.064 0.41822,-0.064 0.57686,0 0.15863,0.064 0.0288,0.11638 -0.28843,0.11638 -0.31727,0 -0.44707,-0.0524 -0.28843,-0.11638 z m 3.51883,-0.65479 0,-0.8076 1.47364,0 c 1.46159,0 1.47447,0.006 1.57543,0.69355 0.056,0.38144 0.0505,0.74486 -0.0123,0.8076 -0.0627,0.0627 -0.77167,0.11405 -1.57542,0.11405 l -1.46137,0 0,-0.8076 z m -1.84595,-7.72988 c 0,-0.12691 0.15576,-0.23074 0.34612,-0.23074 0.19036,0 0.34611,0.10383 0.34611,0.23074 0,0.12691 -0.15575,0.23074 -0.34611,0.23074 -0.19036,0 -0.34612,-0.10383 -0.34612,-0.23074 z m 0.92298,0 c 0,-0.12691 0.10383,-0.23074 0.23074,-0.23074 0.12691,0 0.23074,0.10383 0.23074,0.23074 0,0.12691 -0.10383,0.23074 -0.23074,0.23074 -0.12691,0 -0.23074,-0.10383 -0.23074,-0.23074 z m 1.15371,0 c 0,-0.12691 0.10383,-0.23074 0.23074,-0.23074 0.12691,0 0.23075,0.10383 0.23075,0.23074 0,0.12691 -0.10384,0.23074 -0.23075,0.23074 -0.12691,0 -0.23074,-0.10383 -0.23074,-0.23074 z"
         style="fill:#b6bac4" />
      <path
         inkscape:connector-curvature="0"
         id="path21356"
         d="m 291.57729,375.20968 c -0.0793,-0.42501 -0.11187,-1.39575 -0.0724,-2.1572 l 0.0717,-1.38446 1.30195,-0.0685 1.30195,-0.0685 2.46324,-4.25797 c 1.35479,-2.34188 2.49083,-4.25797 2.52454,-4.25797 0.066,0 0.0704,0.0321 0.2266,1.66394 0.0572,0.59789 0.18535,1.21863 0.28472,1.37941 0.22979,0.37181 0.23263,1.15141 0.006,1.51888 -0.3221,0.52117 0.0995,0.74486 1.404,0.74486 1.48346,0 1.49668,0.1562 0.0375,0.4428 l -1.01252,0.19887 1.31315,0.0253 c 0.72223,0.0139 1.37837,0.13081 1.45809,0.25978 0.0797,0.12898 0.24159,0.17477 0.35973,0.10176 0.11814,-0.073 0.2148,-0.0228 0.2148,0.11161 0,0.14554 -0.58319,0.24579 -1.44215,0.24789 -1.01626,0.002 -1.33993,0.0696 -1.09602,0.22721 0.29827,0.19276 0.29218,0.22416 -0.0441,0.22721 -0.2146,0.002 -0.45436,-0.1003 -0.53279,-0.22721 -0.20626,-0.33373 -1.04903,-0.28416 -0.98066,0.0577 0.0317,0.15863 -0.0658,0.26457 -0.21668,0.23543 -0.1509,-0.0292 -0.33779,0.14684 -0.41532,0.39109 -0.10276,0.32379 -0.40348,0.46787 -1.11009,0.53186 -1.42318,0.12888 6.0062,0.21081 19.09325,0.21057 10.90017,-2.1e-4 11.54162,-0.0231 11.83355,-0.42234 0.19666,-0.26894 0.22151,-0.45117 0.0685,-0.50217 -0.13209,-0.044 -0.18222,-0.17383 -0.11139,-0.28844 0.0708,-0.1146 -0.0776,-0.67484 -0.32975,-1.24498 -0.26161,-0.5914 -0.36585,-1.09389 -0.24272,-1.16999 0.1187,-0.0734 0.21582,-0.44392 0.21582,-0.82345 0,-0.37954 0.16531,-1.00975 0.36736,-1.40046 0.20204,-0.39071 0.38375,-1.02604 0.4038,-1.41184 0.02,-0.3858 0.14028,-0.73248 0.26719,-0.77039 0.1269,-0.0379 1.11333,1.54251 2.19205,3.51205 2.63655,4.81383 2.55,4.71057 3.94804,4.71057 l 1.14562,0 -0.0663,2.13437 -0.0663,2.13437 -0.672,0.0766 c -0.3696,0.0421 -0.88878,-0.038 -1.15372,-0.17803 -0.54919,-0.29033 -40.15699,-0.20344 -41.82762,0.0918 -0.95794,0.16926 -0.96711,0.16429 -1.11006,-0.60207 z m 10.97649,-0.88812 c 0.37142,0 0.67531,-0.10383 0.67531,-0.23074 0,-0.12691 -0.31476,-0.23074 -0.69947,-0.23074 -0.40889,0 -0.75464,-0.14379 -0.83228,-0.34612 -0.0731,-0.19036 -0.24631,-0.34611 -0.38502,-0.34611 -0.16873,0 -0.16056,0.0917 0.0247,0.27689 0.15229,0.15229 0.28894,0.59359 0.30366,0.98066 0.0148,0.38828 0.0741,0.52275 0.13229,0.29996 0.0702,-0.26855 0.33171,-0.4038 0.78083,-0.4038 z m 10.03502,-0.69222 c 0.43614,0 0.79298,-0.0917 0.79298,-0.20384 0,-0.26685 -0.83458,-0.48307 -1.84594,-0.47823 -0.65977,0.003 -0.73368,0.0469 -0.4038,0.23906 0.25567,0.14892 0.41734,0.5484 0.44072,1.08901 0.0368,0.85173 0.0372,0.85199 0.13,0.10391 0.0847,-0.68253 0.16431,-0.74991 0.88604,-0.74991 z m 19.25241,1.03834 c 0,-0.23074 0.23074,-0.34612 0.69223,-0.34612 0.38072,0 0.69223,-0.10383 0.69223,-0.23074 0,-0.12691 -0.31151,-0.23074 -0.69223,-0.23074 -0.38073,0 -0.69223,-0.10384 -0.69223,-0.23074 0,-0.12691 -0.0779,-0.23075 -0.17306,-0.23075 -0.0952,0 -0.17306,0.36342 -0.17306,0.8076 0,0.44418 0.0779,0.8076 0.17306,0.8076 0.0952,0 0.17306,-0.15575 0.17306,-0.34611 z m -18.69017,-0.57686 c 0,-0.12691 -0.25959,-0.23074 -0.57686,-0.23074 -0.31727,0 -0.57686,0.10383 -0.57686,0.23074 0,0.12691 0.25959,0.23074 0.57686,0.23074 0.31727,0 0.57686,-0.10383 0.57686,-0.23074 z m 10.15268,0 c 0,-0.12691 -0.3115,-0.23074 -0.69223,-0.23074 -0.38072,0 -0.69222,0.10383 -0.69222,0.23074 0,0.12691 0.3115,0.23074 0.69222,0.23074 0.38073,0 0.69223,-0.10383 0.69223,-0.23074 z m -16.26126,-0.87841 c -0.0711,-0.071 -0.25723,-1.4e-4 -0.41375,0.15755 -0.22619,0.22789 -0.19969,0.25439 0.12916,0.12917 0.22757,-0.0866 0.35563,-0.21567 0.28459,-0.28672 z m 16.47278,0.0391 c 0.0529,-0.046 -0.38842,-0.0836 -0.98066,-0.0836 -0.59224,0 -1.0768,0.094 -1.0768,0.20879 0,0.18805 1.82499,0.077 2.05746,-0.12517 z m 3.60185,-0.0391 c -0.0711,-0.071 -0.25723,-1.4e-4 -0.41376,0.15755 -0.22618,0.22789 -0.19968,0.25439 0.12917,0.12917 0.22757,-0.0866 0.35563,-0.21567 0.28459,-0.28672 z m -11.02139,0.0276 c -0.22061,-0.0577 -0.63595,-0.0598 -0.92297,-0.005 -0.28703,0.0552 -0.10653,0.10244 0.40111,0.105 0.50763,0.003 0.74247,-0.0426 0.52186,-0.10035 z m -20.25038,-0.85361 c 0,-0.049 -0.3115,-0.1349 -0.69223,-0.19078 -0.38072,-0.0559 -0.69222,-0.0157 -0.69222,0.0892 0,0.10493 0.3115,0.19078 0.69222,0.19078 0.38073,0 0.69223,-0.0401 0.69223,-0.0892 z m 1.38446,-3.22378 c 0,-0.29317 -0.10658,-0.16226 -0.44296,0.54405 -0.25904,0.54392 -0.25424,0.55128 0.0841,0.12895 0.19736,-0.24634 0.35884,-0.54919 0.35884,-0.673 z m 19.30549,1.77468 c -0.0846,-0.0846 -0.15383,-0.45299 -0.15383,-0.81862 l 0,-0.66478 1.44214,0.0687 c 1.44207,0.0687 1.44215,0.0687 1.51445,0.81861 l 0.0723,0.74991 -1.36062,0 c -0.74834,0 -1.42984,-0.0692 -1.51444,-0.15382 z m -12.84469,-1.50197 c 0,-0.10458 0.15575,-0.19015 0.34611,-0.19015 0.19037,0 0.35432,-0.18171 0.36433,-0.4038 0.0109,-0.24123 0.0651,-0.28768 0.13461,-0.11537 0.064,0.15864 0.27213,0.28843 0.46249,0.28843 0.19037,0 0.30546,0.12198 0.25576,0.27107 -0.10175,0.30525 -1.5633,0.44532 -1.5633,0.14982 z m 15.92126,-6.88169 c 0,-0.12691 0.10996,-0.23074 0.24436,-0.23074 0.1344,0 0.18019,0.10383 0.10175,0.23074 -0.0784,0.12691 -0.1884,0.23074 -0.24436,0.23074 -0.056,0 -0.10175,-0.10383 -0.10175,-0.23074 z m 1.15371,0 c 0,-0.12691 0.10996,-0.23074 0.24436,-0.23074 0.1344,0 0.18019,0.10383 0.10176,0.23074 -0.0784,0.12691 -0.1884,0.23074 -0.24437,0.23074 -0.056,0 -0.10175,-0.10383 -0.10175,-0.23074 z m 1.15372,-0.0137 c 0,-0.0928 1.24601,-0.1836 2.76891,-0.20187 1.74951,-0.021 2.76891,0.0534 2.76891,0.20206 0,0.14868 -1.01927,0.22299 -2.76891,0.20187 -1.5229,-0.0184 -2.76891,-0.10931 -2.76891,-0.20206 z m 5.95605,-0.1439 c 0.16656,-0.0666 0.36558,-0.0584 0.44225,0.0182 0.0767,0.0767 -0.0596,0.13121 -0.30285,0.12119 -0.2688,-0.0111 -0.32348,-0.0657 -0.1394,-0.13941 z"
         style="fill:#a0a3ab" />
      <path
         inkscape:connector-curvature="0"
         id="path21354"
         d="m 291.61255,373.96564 c -0.17864,-2.11329 -0.0286,-2.38748 1.3091,-2.39293 16.13837,-0.0657 43.143,-0.004 43.30972,0.0991 0.12358,0.0764 0.2247,1.02965 0.2247,2.11839 l 0,1.97952 -1.67289,-0.15141 c -0.92009,-0.0833 -8.88937,-0.15295 -17.70951,-0.15484 -10.23686,-0.002 -15.91146,-0.0828 -15.69052,-0.223 0.19036,-0.12076 0.76145,-0.22115 1.26909,-0.22309 0.92238,-0.004 0.92297,-0.004 0.92297,-0.92651 l 0,-0.92297 -3.35731,0 c -2.30358,0 -3.44421,0.0869 -3.6342,0.27689 -0.33441,0.33441 -0.37072,1.56905 -0.0462,1.56905 0.12691,0 0.23074,-0.29419 0.23074,-0.65377 0,-0.80063 0.1283,-0.94501 0.70559,-0.79405 0.30772,0.0805 0.44813,0.3176 0.44813,0.75683 0,0.65884 0.0372,0.63941 -2.01433,1.05306 -0.15606,0.0315 -1.15229,0.12956 -2.21383,0.21799 l -1.93007,0.16077 -0.15123,-1.78898 z m 20.73089,1.02241 c 0.4841,-0.0194 0.55348,-0.0612 0.23074,-0.13879 -0.85576,-0.20584 -0.94874,-0.54309 -0.13129,-0.47622 1.03447,0.0846 1.22299,-0.45009 0.20298,-0.57574 l -0.76392,-0.0941 0.86529,-0.0369 c 1.05079,-0.0448 1.13509,-0.38676 0.14421,-0.58494 -1.11071,-0.22214 -5.92687,-0.1707 -6.07245,0.0649 -0.0711,0.11499 -0.31083,0.18181 -0.53279,0.14849 -0.22197,-0.0333 -0.27378,-0.016 -0.11514,0.0386 0.15863,0.0545 0.28842,0.44632 0.28842,0.87062 0,0.4243 0.12804,0.81413 0.28452,0.86629 0.23848,0.0795 2.34145,0.0487 5.59943,-0.0821 z m -5.42296,-0.7853 5e-4,-0.69567 2.30743,-0.0392 2.30743,-0.0392 0,0.66184 0,0.66183 -2.30793,0.073 -2.30794,0.073 5.1e-4,-0.69567 z m 25.26684,0.84851 c 1.04246,-0.1381 1.16076,-0.21403 1.22673,-0.78738 0.0643,-0.55866 -0.005,-0.63497 -0.57686,-0.63808 -0.43487,-0.002 -0.54981,-0.067 -0.34743,-0.19533 0.1767,-0.11206 -0.86719,-0.2579 -2.51093,-0.35079 -2.46117,-0.13909 -2.86732,-0.11016 -3.24441,0.23109 -0.54274,0.49117 -0.55705,1.37596 -0.0272,1.68454 0.44752,0.26066 3.68541,0.29372 5.48014,0.0559 z m -5.42245,-0.70144 c 0,-0.51966 0.57553,-1.05058 0.91286,-0.8421 0.13247,0.0819 0.24085,0.40231 0.24085,0.71209 0,0.44696 -0.11909,0.56324 -0.57686,0.56324 -0.41049,0 -0.57685,-0.12495 -0.57685,-0.43323 z m 1.38445,-0.259 c 0,-0.5384 0.10255,-0.69223 0.46149,-0.69223 0.35893,0 0.46148,0.15383 0.46148,0.69223 0,0.5384 -0.10255,0.69223 -0.46148,0.69223 -0.35894,0 -0.46149,-0.15383 -0.46149,-0.69223 z m 1.19608,0.0577 c 0.0435,-0.37776 0.21307,-0.63455 0.41912,-0.63455 0.20605,0 0.37566,0.25679 0.41913,0.63455 0.0595,0.51671 -0.0184,0.63454 -0.41913,0.63454 -0.40075,0 -0.47858,-0.11783 -0.41912,-0.63454 z m 1.11135,-0.009 c 0,-0.47771 0.1187,-0.65206 0.46149,-0.67788 0.36465,-0.0275 0.46148,0.10747 0.46148,0.64312 0,0.52406 -0.10472,0.67789 -0.46148,0.67789 -0.35111,0 -0.46149,-0.15383 -0.46149,-0.64313 z m 1.51765,0.44123 c -0.0686,-0.11105 0.13481,-0.2019 0.45208,-0.2019 0.31727,0 0.63301,0.0908 0.70164,0.2019 0.0686,0.11104 -0.13481,0.2019 -0.45208,0.2019 -0.31727,0 -0.63301,-0.0909 -0.70164,-0.2019 z m -15.2046,-0.0721 c -0.0737,-0.18407 -0.12833,-0.12939 -0.1394,0.13941 -0.01,0.24324 0.0445,0.37952 0.12119,0.30285 0.0767,-0.0767 0.0849,-0.27569 0.0182,-0.44226 z m 1.05378,0.35194 c -0.15864,-0.064 -0.41822,-0.064 -0.57686,0 -0.15863,0.064 -0.0288,0.11638 0.28843,0.11638 0.31727,0 0.44707,-0.0524 0.28843,-0.11638 z m 1.15371,0 c -0.15863,-0.064 -0.41822,-0.064 -0.57685,0 -0.15864,0.064 -0.0288,0.11638 0.28843,0.11638 0.31727,0 0.44706,-0.0524 0.28842,-0.11638 z m 2.94198,-0.20201 c 0,-0.22107 0.23868,-0.33741 0.69222,-0.33741 0.93824,0 0.88536,-0.45305 -0.0577,-0.49423 -0.71924,-0.0314 -0.7129,-0.0385 0.15502,-0.17305 0.49771,-0.0772 0.94766,-0.27011 0.99988,-0.42874 0.0722,-0.21946 -0.5357,-0.28843 -2.54237,-0.28843 -3.121,0 -6.86159,0.24108 -6.86159,0.44222 0,0.0783 1.60943,0.10693 3.57652,0.0636 l 3.57651,-0.0788 0,0.70947 c 0,0.55563 -0.10006,0.70946 -0.46149,0.70946 -0.34123,0 -0.47049,-0.16535 -0.49605,-0.63454 l -0.0346,-0.63455 -0.0948,0.62033 c -0.064,0.41883 -0.25885,0.64818 -0.59997,0.70611 -0.27787,0.0472 0.0918,0.10158 0.82155,0.12088 1.02632,0.0272 1.32678,-0.0413 1.32678,-0.30231 z m -16.03663,-1.95261 c 0.0795,-0.12866 -0.0931,-0.22918 -0.39019,-0.22721 -0.42863,0.003 -0.46512,0.0473 -0.18667,0.22721 0.42935,0.27747 0.40537,0.27747 0.57686,0 z m 1.09603,-0.15281 c -0.15864,-0.064 -0.41823,-0.064 -0.57686,0 -0.15864,0.064 -0.0288,0.11638 0.28843,0.11638 0.31727,0 0.44706,-0.0524 0.28843,-0.11638 z m -10.99613,-0.27332 c -0.16616,-0.26886 -1.52167,-0.2866 -1.52167,-0.0199 0,0.11842 0.36954,0.21531 0.82121,0.21531 0.45167,0 0.76688,-0.0879 0.70046,-0.19539 z m 2.17021,2.06602 c 0,-0.36715 0.1456,-0.72341 0.32356,-0.7917 0.44451,-0.17058 0.59941,0.0376 0.59941,0.80547 0,0.49994 -0.10858,0.65377 -0.46148,0.65377 -0.35514,0 -0.46149,-0.15383 -0.46149,-0.66754 z m 1.15372,-0.009 c 0,-0.82732 0.91357,-1.21512 0.93759,-0.398 0.0146,0.4952 0.0156,0.4951 0.22331,-0.0216 0.11478,-0.28554 0.30315,-0.51917 0.41861,-0.51917 0.32426,0 0.64281,0.52707 0.6269,1.03726 -0.012,0.38642 -0.1905,0.46807 -1.11039,0.50806 -1.06102,0.0461 -1.09602,0.0268 -1.09602,-0.60655 z m 2.53817,0.24806 c 0,-0.10869 0.31126,-0.18657 0.6917,-0.17306 0.90266,0.0321 0.90315,0.37069 5.3e-4,0.37069 -0.38073,0 -0.69223,-0.0889 -0.69223,-0.19763 z m 15.05597,-3.6571 c -0.36184,-0.0697 -0.51917,-0.26347 -0.51917,-0.63945 0,-0.49118 0.11464,-0.54653 1.28117,-0.61849 1.32851,-0.082 1.71848,0.0873 1.71848,0.74586 0,0.24828 -0.25786,0.43807 -0.72107,0.53071 -0.74835,0.14967 -0.89361,0.14813 -1.75941,-0.0186 z"
         style="fill:#5c5d60" />
      <path
         inkscape:connector-curvature="0"
         id="path21352"
         d="m 293.30715,375.18626 c 0,-1.40061 -0.27618,-2.03904 -0.93947,-2.17169 -0.35542,-0.0711 -0.70574,-0.28435 -0.77849,-0.47391 -0.10684,-0.27844 0.0455,-0.32771 0.79285,-0.25644 0.50881,0.0485 0.92511,0.0139 0.92511,-0.077 0,-0.0909 -0.38938,-0.20596 -0.86528,-0.25574 -0.64193,-0.0672 -0.52281,-0.10052 0.46148,-0.1293 0.72973,-0.0213 1.32667,-0.11666 1.32655,-0.21184 -1.3e-4,-0.0952 3.5562,-0.0998 7.90294,-0.0102 4.34674,0.0896 9.22791,0.12683 10.84703,0.0828 1.61913,-0.044 3.00106,0.0125 3.07097,0.12555 0.20542,0.33239 4.01745,0.25631 4.14805,-0.0828 0.0862,-0.22392 1.6457,-0.27325 6.97272,-0.22053 3.77391,0.0374 7.40679,0.12524 8.07306,0.19533 1.36697,0.14379 1.32836,0.0498 1.06315,2.58721 l -0.14824,1.4183 -0.8901,0 c -0.48956,0 -0.8901,-0.10839 -0.8901,-0.24086 0,-0.13247 -0.18171,-0.21034 -0.4038,-0.17305 -0.33479,0.0562 -0.4038,-0.10965 -0.4038,-0.97055 0,-0.69943 -0.11297,-1.08953 -0.34611,-1.19518 -0.84732,-0.38395 -8.99898,-0.0969 -8.99898,0.31687 0,0.11385 0.36342,0.13882 0.8076,0.0555 0.54923,-0.10304 0.8076,-0.0651 0.8076,0.11853 0,0.14853 0.10384,0.20587 0.23075,0.12744 0.13408,-0.0829 0.23074,0.14502 0.23074,0.54401 0,0.37764 0.12979,0.73709 0.28843,0.79878 0.15863,0.0617 -0.90567,0.10359 -2.36512,0.0931 -1.58425,-0.0114 -2.23512,-0.0721 -1.6152,-0.15062 l 1.03835,-0.13158 0.0724,-1.12464 0.0724,-1.12465 -3.1874,0.17141 c -1.75307,0.0943 -3.65465,0.15949 -4.22574,0.14494 -1.3178,-0.0336 -2.30743,0.17076 -2.30743,0.47646 0,0.13803 0.24149,0.17681 0.57686,0.0926 1.06783,-0.26801 1.67495,0.0508 1.77801,0.93365 l 0.0935,0.80042 -1.34125,-0.0665 c -1.44744,-0.0717 -1.74779,-0.3658 -1.47673,-1.44582 0.1135,-0.45219 0.0259,-0.55343 -0.58486,-0.67557 -0.3951,-0.079 -1.06881,-0.14367 -1.49712,-0.14367 -0.42832,0 -0.77876,-0.10384 -0.77876,-0.23075 0,-0.1269 0.10383,-0.23074 0.23074,-0.23074 0.12691,0 0.23074,-0.0858 0.23074,-0.19078 0,-0.10493 -0.3146,-0.1446 -0.69913,-0.0882 -0.64151,0.0942 -0.66528,0.12829 -0.28842,0.41419 0.37191,0.28215 0.33988,0.31226 -0.33922,0.31891 -0.74318,0.007 -1.01667,-0.30805 -0.46148,-0.53208 0.15863,-0.064 -0.075,-0.12127 -0.51917,-0.12726 -0.75893,-0.0102 -0.78061,0.01 -0.3597,0.3279 0.41724,0.31558 0.38301,0.33878 -0.49995,0.33878 -0.52131,0 -0.98422,-0.10913 -1.02868,-0.24251 -0.0494,-0.14821 -0.70743,-0.21431 -1.69211,-0.16997 -1.43406,0.0646 -1.54783,0.10232 -1.03442,0.34325 0.31727,0.1489 0.44706,0.2773 0.28843,0.28534 -0.15864,0.008 -0.28843,0.11587 -0.28843,0.2396 0,0.12691 0.30174,0.16463 0.69223,0.0865 0.43155,-0.0863 0.69223,-0.0434 0.69223,0.1139 0,0.13879 0.15575,0.19258 0.34611,0.11953 0.26878,-0.10314 0.34611,0.0557 0.34611,0.71111 l 0,0.84394 -1.15367,-0.0693 -1.15367,-0.0693 -0.0274,-0.92297 c -0.0151,-0.50763 -0.0151,-1.00084 -5e-5,-1.09603 0.015,-0.0952 -1.55615,-0.16975 -3.4915,-0.16572 -3.50278,0.007 -4.32643,0.17439 -4.32643,0.87762 0,0.16274 -0.25427,0.20637 -0.69223,0.11878 -0.54195,-0.10839 -0.69223,-0.0571 -0.69223,0.23651 0,0.23397 0.19522,0.37629 0.51917,0.37849 0.41983,0.003 0.45294,0.0463 0.17306,0.22721 -0.21171,0.13682 -0.23856,0.22505 -0.0691,0.22721 0.15233,0.002 0.37075,-0.16406 0.48538,-0.36889 0.17977,-0.32123 0.22652,-0.30318 0.34014,0.13129 0.12454,0.47625 0.0643,0.5006 -1.10417,0.44647 -0.75481,-0.035 -1.37675,0.0596 -1.59776,0.24307 -0.31223,0.25913 -0.36187,0.22129 -0.36187,-0.27594 z m 12.46012,-0.8647 c 0,-0.1269 -0.15576,-0.23074 -0.34612,-0.23074 -0.19036,0 -0.34611,0.10384 -0.34611,0.23074 0,0.12691 0.15575,0.23075 0.34611,0.23075 0.19036,0 0.34612,-0.10384 0.34612,-0.23075 z m 9.7828,0.0385 c 0.0654,-0.10576 -0.0278,-0.19228 -0.20698,-0.19228 -0.17919,0 -0.27233,0.0865 -0.20697,0.19228 0.0654,0.10576 0.1585,0.19229 0.20697,0.19229 0.0485,0 0.14162,-0.0865 0.20698,-0.19229 z m -20.92095,-0.63935 c -0.0767,-0.0767 -0.27569,-0.0849 -0.44226,-0.0182 -0.18407,0.0737 -0.1294,0.12834 0.13941,0.13941 0.24324,0.01 0.37952,-0.0445 0.30285,-0.12119 z m 1.33157,-0.0913 c -0.0784,-0.12691 -0.3701,-0.2204 -0.64816,-0.20775 -0.47062,0.0214 -0.46569,0.0358 0.0713,0.20775 0.31727,0.1016 0.60894,0.19509 0.64816,0.20774 0.0392,0.0127 0.007,-0.0808 -0.0713,-0.20774 z m 19.66603,0.0913 c -0.0767,-0.0767 -0.2757,-0.0849 -0.44226,-0.0182 -0.18407,0.0737 -0.1294,0.12834 0.13941,0.13941 0.24324,0.01 0.37952,-0.0445 0.30285,-0.12119 z m -20.06983,-0.929 c 0.28555,-0.0765 0.51918,-0.29886 0.51918,-0.49409 0,-0.29821 0.074,-0.28798 0.4629,0.064 0.49808,0.45076 0.78154,0.40351 0.48245,-0.0804 -0.10079,-0.16309 -0.77007,-0.34685 -1.48728,-0.40835 -1.27301,-0.10916 -1.30402,-0.0978 -1.30402,0.47627 0,0.61609 0.30272,0.71709 1.32677,0.44265 z m 18.74786,-0.34074 c 0,-0.11333 -0.20767,-0.20605 -0.46148,-0.20605 -0.44977,0 -0.60132,0.24474 -0.32356,0.5225 0.18485,0.18485 0.78504,-0.0571 0.78504,-0.31645 z m -13.73543,0.0348 c 0.075,-0.12137 0.2715,-0.16882 0.43665,-0.10544 0.16658,0.0639 0.30027,-0.0433 0.30027,-0.24082 0,-0.46711 -0.5354,-0.45788 -0.79935,0.0138 -0.22484,0.40178 -1.11691,0.34023 -1.03526,-0.0714 0.0284,-0.14294 -0.14554,-0.19997 -0.4038,-0.13244 -0.90577,0.23687 -0.39762,0.61506 0.97493,0.7256 0.2146,0.0173 0.45155,-0.0679 0.52656,-0.18924 z m 12.58172,-0.0101 c 0,-0.12691 -0.10997,-0.23074 -0.24436,-0.23074 -0.1344,0 -0.18019,0.10383 -0.10176,0.23074 0.0784,0.12691 0.1884,0.23074 0.24436,0.23074 0.056,0 0.10176,-0.10383 0.10176,-0.23074 z m -16.152,1.71365 c 0,-0.75737 0.77191,-0.68997 0.88133,0.077 0.056,0.39252 -0.0411,0.51681 -0.4038,0.51681 -0.35917,0 -0.47753,-0.14718 -0.47753,-0.59378 z m 2.30743,0.0169 c 0,-0.42303 0.12306,-0.57685 0.46148,-0.57685 0.33842,0 0.46149,0.15382 0.46149,0.57685 0,0.42303 -0.12307,0.57686 -0.46149,0.57686 -0.33842,0 -0.46148,-0.15383 -0.46148,-0.57686 z m 1.5729,0.42077 c -0.49081,-0.1296 -0.45534,-0.89874 0.0414,-0.89874 0.21872,0 0.38771,0.21553 0.41352,0.52742 0.024,0.29007 0.0189,0.51536 -0.0115,0.50064 -0.0303,-0.0147 -0.22988,-0.0729 -0.44351,-0.12932 z m 2.84764,-0.3054 c 0,-0.31727 0.0524,-0.44706 0.11639,-0.28842 0.064,0.15863 0.064,0.41822 0,0.57685 -0.064,0.15864 -0.11639,0.0289 -0.11639,-0.28843 z m 3.19397,-0.11537 c 0,-0.42303 0.12306,-0.57685 0.46149,-0.57685 0.33842,0 0.46148,0.15382 0.46148,0.57685 0,0.42303 -0.12306,0.57686 -0.46148,0.57686 -0.33843,0 -0.46149,-0.15383 -0.46149,-0.57686 z m 1.3668,0.4038 c -0.01,-0.0952 -0.0505,-0.34137 -0.0906,-0.54709 -0.0928,-0.47584 0.62955,-0.45152 0.82928,0.0279 0.18201,0.43693 0.0387,0.69223 -0.38855,0.69223 -0.18287,0 -0.34044,-0.0779 -0.35015,-0.17306 z m 1.17137,-0.4038 c 0,-0.64417 0.55898,-0.79544 0.78291,-0.21187 0.23403,0.60985 0.16113,0.78873 -0.32142,0.78873 -0.33843,0 -0.46149,-0.15383 -0.46149,-0.57686 z m 1.15372,-0.0938 c 0,-0.55702 0.0782,-0.65018 0.46148,-0.54994 0.29865,0.0781 0.46149,0.31473 0.46149,0.67062 0,0.39612 -0.12909,0.54995 -0.46149,0.54995 -0.35563,0 -0.46148,-0.15383 -0.46148,-0.67063 z m 6.40176,0.49757 c -0.21663,-0.43455 -0.0149,-0.86528 0.40515,-0.86528 0.3029,0 0.48682,0.1784 0.53522,0.51917 0.0555,0.3907 -0.0411,0.51917 -0.39018,0.51917 -0.25516,0 -0.50274,-0.0779 -0.55019,-0.17306 z m 1.21275,-0.52729 c 0,-0.62884 0.0471,-0.67513 0.46149,-0.45336 0.25381,0.13583 0.46148,0.45099 0.46148,0.70034 0,0.29954 -0.15658,0.45337 -0.46148,0.45337 -0.36013,0 -0.46149,-0.15383 -0.46149,-0.70035 z m 1.15371,0.14818 c 0,-0.52979 0.49774,-0.94987 0.78504,-0.66256 0.0759,0.0759 0.13794,0.38021 0.13794,0.67633 0,0.38457 -0.13186,0.5384 -0.46149,0.5384 -0.33292,0 -0.46149,-0.15383 -0.46149,-0.55217 z m 1.15372,-0.0906 c 0,-0.48896 0.11044,-0.64279 0.46148,-0.64279 0.35105,0 0.46149,0.15383 0.46149,0.64279 0,0.48895 -0.11044,0.64278 -0.46149,0.64278 -0.35104,0 -0.46148,-0.15383 -0.46148,-0.64278 z m 6.50962,0.11537 c 0.0258,-0.31134 0.19483,-0.52742 0.41266,-0.52742 0.21784,0 0.3869,0.21608 0.41267,0.52742 0.032,0.3863 -0.0784,0.52741 -0.41267,0.52741 -0.33423,0 -0.44464,-0.14111 -0.41266,-0.52741 z m 1.10489,-0.0495 c 0,-0.42303 0.12306,-0.57685 0.46149,-0.57685 0.33842,0 0.46148,0.15382 0.46148,0.57685 0,0.42303 -0.12306,0.57686 -0.46148,0.57686 -0.33843,0 -0.46149,-0.15383 -0.46149,-0.57686 z m 1.2089,-0.0275 c 0.0403,-0.48643 0.0876,-0.52029 0.30745,-0.2197 0.14292,0.19545 0.32746,0.28776 0.4101,0.20513 0.0826,-0.0826 0.15024,7.1e-4 0.15024,0.18522 0,0.18451 -0.20596,0.35099 -0.45769,0.36995 -0.35436,0.0267 -0.44695,-0.0954 -0.4101,-0.5406 z m 1.18043,0.0852 c 0.11632,-0.7645 0.84107,-0.82878 0.84107,-0.0746 0,0.43933 -0.11966,0.59378 -0.46004,0.59378 -0.34665,0 -0.44056,-0.12796 -0.38103,-0.51917 z m -32.3859,0.0192 c 0,-0.14806 0.0676,-0.20159 0.15024,-0.11896 0.0826,0.0826 0.26772,-0.0104 0.4113,-0.20677 0.22621,-0.30937 0.26583,-0.29349 0.2969,0.11896 0.0248,0.32938 -0.10185,0.47597 -0.41129,0.47597 -0.24593,0 -0.44715,-0.12114 -0.44715,-0.2692 z m 18.28637,-2.65877 c 0.22209,-0.058 0.58551,-0.058 0.8076,0 0.22209,0.058 0.0404,0.10552 -0.4038,0.10552 -0.44418,0 -0.62589,-0.0475 -0.4038,-0.10552 z m 1.78826,-0.014 c 0,-0.0952 0.41534,-0.17306 0.92297,-0.17306 0.50764,0 0.92297,0.0779 0.92297,0.17306 0,0.0952 -0.41533,0.17305 -0.92297,0.17305 -0.50763,0 -0.92297,-0.0779 -0.92297,-0.17305 z m 0.0577,-0.90898 c 0.22209,-0.058 0.58551,-0.058 0.8076,0 0.22209,0.058 0.0404,0.10553 -0.4038,0.10553 -0.44418,0 -0.62589,-0.0475 -0.4038,-0.10553 z m -1.88542,-0.66777 c 0.0111,-0.2688 0.0657,-0.32348 0.13941,-0.1394 0.0666,0.16656 0.0585,0.36558 -0.0182,0.44225 -0.0767,0.0767 -0.13121,-0.0596 -0.12119,-0.30285 z m 0.67402,-0.0961 c 0,-0.12691 0.36342,-0.23074 0.8076,-0.23074 0.44418,0 0.8076,0.10383 0.8076,0.23074 0,0.12691 -0.36342,0.23074 -0.8076,0.23074 -0.44418,0 -0.8076,-0.10383 -0.8076,-0.23074 z"
         style="fill:#3c3c41" />
      <path
         inkscape:connector-curvature="0"
         id="path21350"
         d="m 334.06735,375.31153 c -0.63724,-0.33457 -0.65341,-0.38692 -0.50901,-1.64841 0.0921,-0.80489 0.0691,-1.18491 -0.0602,-0.99425 -0.32244,0.47542 -1.31084,0.24271 -1.31084,-0.30862 0,-0.4237 -0.19839,-0.47243 -2.4228,-0.59518 -2.02891,-0.11196 -1.8601,-0.12606 1.03835,-0.0867 1.90362,0.0258 3.92839,0.086 4.49948,0.13369 0.98061,0.0819 1.03834,0.12524 1.03834,0.77898 0,0.60928 -0.088,0.70076 -0.73455,0.76339 -0.52168,0.0505 -0.72678,0.18428 -0.70772,0.46149 0.0148,0.21468 -0.0445,0.66957 -0.13161,1.01088 -0.14861,0.58199 -0.10462,0.62619 0.70771,0.71113 l 0.86617,0.0906 -0.8076,0.0143 c -0.44418,0.008 -1.10376,-0.14118 -1.46574,-0.33122 z m 0.4773,-2.08599 c -0.0529,-0.349 -0.0961,-0.0635 -0.0961,0.63454 0,0.698 0.0433,0.98354 0.0961,0.63454 0.0529,-0.349 0.0529,-0.92009 0,-1.26908 z m -41.00676,2.019 c 0,-0.12691 0.10997,-0.23075 0.24436,-0.23075 0.1344,0 0.18019,0.10384 0.10176,0.23075 -0.0784,0.1269 -0.1884,0.23074 -0.24436,0.23074 -0.056,0 -0.10176,-0.10384 -0.10176,-0.23074 z m 30.23466,-1.10965 c -0.005,-0.75958 0.0803,-1.17084 0.2234,-1.08241 0.12691,0.0784 0.23074,0.29588 0.23074,0.48322 0,0.27218 0.0953,0.28961 0.47428,0.0868 0.26085,-0.13961 0.59832,-0.20337 0.74992,-0.14171 0.1516,0.0617 0.0939,0.12032 -0.12817,0.13034 -0.60892,0.0275 -0.51163,0.88636 0.11537,1.01851 0.28555,0.0602 0.15576,0.0934 -0.28842,0.0737 -0.47652,-0.0211 -0.92284,0.1062 -1.0887,0.31042 -0.22927,0.28232 -0.28244,0.1203 -0.28842,-0.8789 z m 1.53657,0.94374 c 0.63453,-0.0793 0.74679,-0.19382 0.81218,-0.82836 l 0.0759,-0.73631 0.12214,0.86529 0.12215,0.86529 -0.93433,-0.0369 c -0.83057,-0.0328 -0.85256,-0.0471 -0.19801,-0.12898 z m -21.15352,-0.81475 c 0.002,-0.50986 0.0672,-0.64941 0.20246,-0.43594 0.18143,0.28635 0.0923,1.18585 -0.11753,1.18585 -0.0487,0 -0.0869,-0.33746 -0.0849,-0.74991 z m 9.72392,-0.0951 c -0.0355,-0.93996 -0.0571,-0.96418 -1.01691,-1.13912 -0.53936,-0.0983 -1.21429,-0.17359 -1.49983,-0.16729 -0.28554,0.006 -0.51917,-0.0781 -0.51917,-0.18765 0,-0.10951 0.10383,-0.19911 0.23074,-0.19911 0.12691,0 0.23074,-0.15575 0.23074,-0.34611 0,-0.28162 0.381,-0.34612 2.04448,-0.34612 2.73884,0 4.24092,0.21519 4.09821,0.58711 -0.0677,0.17643 0.0407,0.26093 0.2764,0.21538 0.21331,-0.0412 0.43975,-0.0845 0.5032,-0.0961 0.0635,-0.0116 -0.0303,-0.11341 -0.20832,-0.22612 -0.21442,-0.13576 0.15858,-0.23193 1.10492,-0.2849 1.3189,-0.0738 1.42351,-0.0445 1.36204,0.38153 -0.0599,0.41504 -0.26396,0.46691 -2.0279,0.51542 -1.33182,0.0366 -1.85023,-0.0178 -1.6152,-0.16952 0.29926,-0.19321 0.29401,-0.22394 -0.0388,-0.227 -0.21171,-0.002 -0.57513,-0.0694 -0.8076,-0.14994 -0.37145,-0.12867 -0.36674,-0.1016 0.0388,0.2234 0.44471,0.35637 0.43003,0.37134 -0.4038,0.41177 -0.4759,0.0231 -0.99508,0.0523 -1.15371,0.065 -0.16198,0.013 -0.34841,0.47829 -0.42524,1.06142 l -0.1368,1.03834 -0.0362,-0.96037 z m 0.31219,-1.46619 c 0.0797,-0.12898 0.24159,-0.17477 0.35973,-0.10175 0.11814,0.073 0.2148,0.0228 0.2148,-0.11161 0,-0.14981 -0.60265,-0.23669 -1.55752,-0.22453 -1.26521,0.0161 -1.43131,0.0576 -0.88505,0.22093 0.36985,0.1106 0.75205,0.1519 0.84934,0.0918 0.0973,-0.0601 0.2421,-0.004 0.32182,0.12519 0.0797,0.12898 0.23651,0.23451 0.34844,0.23451 0.11192,0 0.26872,-0.10553 0.34844,-0.23451 z m 1.03601,2.11891 c 0,-0.10576 0.15119,-0.19229 0.33597,-0.19229 0.18478,0 0.28248,0.0865 0.21712,0.19229 -0.0654,0.10575 -0.21654,0.19228 -0.33596,0.19228 -0.11942,0 -0.21713,-0.0865 -0.21713,-0.19228 z m -21.39204,-0.3881 c -0.36638,-0.3979 -0.63737,-1.4963 -0.36915,-1.4963 0.2091,0 0.87645,1.58287 0.72709,1.72457 -0.0434,0.0412 -0.20445,-0.0616 -0.35794,-0.22827 z m 3.16336,-0.18988 c 0,-0.41481 0.11166,-0.55697 0.4038,-0.5141 0.22209,0.0326 0.4038,0.25562 0.4038,0.4956 0,0.23998 -0.18171,0.47132 -0.4038,0.51409 -0.2971,0.0572 -0.4038,-0.0737 -0.4038,-0.49559 z m 2.48666,0.37864 c -0.20134,-0.39761 -0.047,-0.87746 0.28225,-0.87746 0.4044,0 0.4726,0.84235 0.0788,0.97361 -0.147,0.049 -0.30949,0.006 -0.36108,-0.0962 z m 7.4535,-0.47366 c 0.01,-0.349 0.0706,-0.50475 0.1346,-0.34612 0.064,0.15864 0.21769,0.28843 0.34151,0.28843 0.12382,0 0.15105,-0.11988 0.0605,-0.26639 -0.102,-0.16505 -0.0633,-0.20376 0.10176,-0.10176 0.45821,0.28319 0.31522,1.06038 -0.19509,1.06038 -0.35403,0 -0.45725,-0.14776 -0.44327,-0.63454 z m 1.42923,0.17907 c 0.05,-0.66451 0.52488,-0.74302 0.57845,-0.0957 0.0285,0.34478 -0.0776,0.55112 -0.28357,0.55112 -0.1855,0 -0.31422,-0.19881 -0.29488,-0.45547 z m 1.09072,0.13404 c 0,-0.17678 0.15575,-0.38119 0.34612,-0.45424 0.23542,-0.0903 0.34611,0.0125 0.34611,0.32143 0,0.24994 -0.15567,0.45424 -0.34611,0.45424 -0.19037,0 -0.34612,-0.14464 -0.34612,-0.32143 z m 1.15372,-0.13281 c 0,-0.32888 0.10597,-0.41358 0.38396,-0.30691 0.2788,0.10699 0.33223,0.0636 0.19509,-0.15826 -0.12567,-0.20334 -0.0997,-0.25051 0.0775,-0.14097 0.45822,0.28319 0.31523,1.06038 -0.19509,1.06038 -0.3052,0 -0.46148,-0.15383 -0.46148,-0.45424 z m 4.17158,0.0697 c -0.01,-0.27497 -0.14801,-0.55232 -0.30664,-0.61633 -0.22591,-0.0912 -0.22434,-0.12033 0.007,-0.1346 0.35025,-0.0216 0.60497,0.53556 0.43655,0.95483 -0.0654,0.16282 -0.12712,0.0711 -0.13714,-0.2039 z m 2.28922,0.0385 c 0,-0.19037 0.12979,-0.34771 0.28842,-0.34965 0.19229,-0.002 0.17306,-0.0781 -0.0577,-0.22721 -0.21743,-0.14051 -0.24189,-0.22499 -0.0658,-0.22721 0.24987,-0.003 0.75803,0.68038 0.75803,1.01964 0,0.0718 -0.20767,0.13054 -0.46149,0.13054 -0.25638,0 -0.46148,-0.15383 -0.46148,-0.34611 z m 1.15371,-0.0907 c 0,-0.43829 0.52677,-0.80546 0.78504,-0.54719 0.33109,0.33109 0.11641,0.98399 -0.32355,0.98399 -0.29897,0 -0.46149,-0.15383 -0.46149,-0.4368 z m 1.20253,-0.0906 c 0.0258,-0.31134 0.19484,-0.52742 0.41267,-0.52742 0.21783,0 0.3869,0.21608 0.41267,0.52742 0.032,0.3863 -0.0784,0.52741 -0.41267,0.52741 -0.33423,0 -0.44464,-0.14111 -0.41267,-0.52741 z m 1.1049,0.074 c 0,-0.24935 0.20767,-0.56451 0.46148,-0.70034 0.41437,-0.22177 0.46149,-0.17548 0.46149,0.45336 0,0.54652 -0.10136,0.70035 -0.46149,0.70035 -0.3049,0 -0.46148,-0.15383 -0.46148,-0.45337 z m 6.47902,0.088 c 0.0111,-0.26881 0.0657,-0.32348 0.1394,-0.13941 0.0667,0.16657 0.0585,0.36558 -0.0182,0.44226 -0.0767,0.0767 -0.13121,-0.0596 -0.1212,-0.30285 z m 1.13549,-0.0889 c 0,-0.32888 0.10598,-0.41358 0.38397,-0.30691 0.2788,0.10699 0.33223,0.0636 0.19509,-0.15826 -0.12567,-0.20334 -0.0997,-0.25051 0.0775,-0.14097 0.45821,0.28319 0.31522,1.06038 -0.19509,1.06038 -0.30521,0 -0.46149,-0.15383 -0.46149,-0.45424 z m 2.47914,0.28118 c -0.19818,-0.39753 -0.0294,-0.82524 0.34746,-0.88056 0.28933,-0.0425 0.4038,0.0985 0.4038,0.49718 0,0.51884 -0.54507,0.797 -0.75126,0.38338 z M 298.70179,374.234 c 0.0291,-0.19831 0.11736,-0.42501 0.19611,-0.50377 0.0788,-0.0787 0.11938,0.0191 0.0903,0.21739 -0.0291,0.19832 -0.11736,0.42501 -0.19611,0.50377 -0.0788,0.0788 -0.11938,-0.0191 -0.0903,-0.21739 z m 7.08369,-0.0471 c 0.0111,-0.2688 0.0657,-0.32347 0.13941,-0.1394 0.0666,0.16656 0.0585,0.36558 -0.0182,0.44225 -0.0767,0.0767 -0.13121,-0.0596 -0.12119,-0.30285 z m 21.74853,0.0294 c 0,-0.18478 0.0882,-0.28144 0.19605,-0.2148 0.10782,0.0666 0.13631,0.21783 0.0633,0.33597 -0.18658,0.3019 -0.25934,0.2679 -0.25934,-0.12117 z m 1.98212,0.27828 c -0.12459,-0.40708 -0.14619,-0.8753 -0.0353,-0.76438 0.16839,0.16839 0.28597,0.82207 0.14787,0.82207 -0.0522,0 -0.10289,-0.026 -0.1126,-0.0577 z m 5.91411,-0.38354 c -0.0716,-0.11577 0.0231,-0.188 0.21045,-0.16051 0.49407,0.0725 0.72787,0.37099 0.29059,0.37099 -0.20402,0 -0.42949,-0.0947 -0.50104,-0.21048 z m -41.43086,-0.81639 c 0,-0.18406 -0.16918,-0.42933 -0.37595,-0.54504 -0.46526,-0.26038 -0.32014,-0.78939 0.23906,-0.87147 0.32518,-0.0477 0.3918,0.0602 0.30792,0.49901 -0.10353,0.54156 -0.0624,0.55992 1.25452,0.55992 1.16077,0 1.31768,0.0482 1.06403,0.32682 -0.16364,0.17975 -0.3859,0.24193 -0.49393,0.13817 -0.10802,-0.10375 -0.52267,-0.0951 -0.92144,0.0193 -0.96805,0.27763 -1.07421,0.26511 -1.07421,-0.12671 z m 15.22903,-0.58833 c 0,-0.1269 0.10383,-0.23074 0.23074,-0.23074 0.12691,0 0.23804,-0.18171 0.24696,-0.4038 0.0137,-0.34231 0.0441,-0.33353 0.19925,0.0577 0.11137,0.28081 0.0824,0.52785 -0.0739,0.63101 -0.36112,0.23826 -0.60305,0.21653 -0.60305,-0.0542 z m -12.9216,-0.24436 c 0,-0.1344 0.10383,-0.18018 0.23074,-0.10175 0.12691,0.0784 0.23074,0.1884 0.23074,0.24436 0,0.056 -0.10383,0.10175 -0.23074,0.10175 -0.12691,0 -0.23074,-0.10996 -0.23074,-0.24436 z m 6.4608,-0.16334 c 0,-0.13963 -0.28555,-0.29713 -0.63454,-0.35 -0.41238,-0.0625 -0.271,-0.10699 0.4038,-0.12716 0.57108,-0.0171 0.9345,0.0464 0.8076,0.14117 -0.12691,0.0947 -0.30862,0.26618 -0.4038,0.38104 -0.0986,0.11896 -0.17306,0.0996 -0.17306,-0.0451 z m 5.94163,-0.43734 c 0.15863,-0.064 0.41822,-0.064 0.57685,0 0.15864,0.064 0.0288,0.11638 -0.28842,0.11638 -0.31728,0 -0.44707,-0.0524 -0.28843,-0.11638 z m -11.75347,-0.23555 c 0.16657,-0.0667 0.36559,-0.0585 0.44226,0.0182 0.0767,0.0767 -0.0596,0.13121 -0.30285,0.12119 -0.2688,-0.0111 -0.32348,-0.0657 -0.13941,-0.13941 z m 1.9469,-10e-4 c 0.22209,-0.058 0.58551,-0.058 0.8076,0 0.22209,0.058 0.0404,0.10552 -0.4038,0.10552 -0.44418,0 -0.62589,-0.0475 -0.4038,-0.10552 z"
         style="fill:#2c2c2f" />
    </g>
  </g>
</svg>
